<svg width="24" height="24" viewBox="0 0 24 24" fill="none" xmlns="http://www.w3.org/2000/svg">
<path fill-rule="evenodd" clip-rule="evenodd" d="M2.2832 17.9867C2.2832 17.6553 2.55183 17.3867 2.8832 17.3867H10.1173C10.4487 17.3867 10.7173 17.6553 10.7173 17.9867C10.7173 18.3181 10.4487 18.5867 10.1173 18.5867H2.8832C2.55183 18.5867 2.2832 18.3181 2.2832 17.9867Z" fill="#52575C"/>
<path fill-rule="evenodd" clip-rule="evenodd" d="M18.2378 15.7068C16.9784 15.7068 15.9578 16.7266 15.9578 17.9868C15.9578 19.2461 16.9786 20.2668 18.2378 20.2668C19.497 20.2668 20.5178 19.2461 20.5178 17.9868C20.5178 16.7266 19.4972 15.7068 18.2378 15.7068ZM14.7578 17.9868C14.7578 16.0635 16.316 14.5068 18.2378 14.5068C20.1596 14.5068 21.7178 16.0635 21.7178 17.9868C21.7178 19.9088 20.1598 21.4668 18.2378 21.4668C16.3159 21.4668 14.7578 19.9088 14.7578 17.9868Z" fill="#52575C"/>
<path fill-rule="evenodd" clip-rule="evenodd" d="M13.2827 6.26211C13.2827 5.93074 13.5513 5.66211 13.8827 5.66211H21.118C21.4494 5.66211 21.718 5.93074 21.718 6.26211C21.718 6.59348 21.4494 6.86211 21.118 6.86211H13.8827C13.5513 6.86211 13.2827 6.59348 13.2827 6.26211Z" fill="#52575C"/>
<path fill-rule="evenodd" clip-rule="evenodd" d="M2.28271 6.26223C2.28271 4.34027 3.84076 2.78223 5.76271 2.78223C7.68467 2.78223 9.24271 4.34027 9.24271 6.26223C9.24271 8.18552 7.68451 9.74223 5.76271 9.74223C3.84092 9.74223 2.28271 8.18552 2.28271 6.26223ZM5.76271 3.98223C4.5035 3.98223 3.48271 5.00301 3.48271 6.26223C3.48271 7.52246 4.50334 8.54223 5.76271 8.54223C7.02209 8.54223 8.04272 7.52246 8.04272 6.26223C8.04272 5.00301 7.02193 3.98223 5.76271 3.98223Z" fill="#52575C"/>
</svg>
